<svg width="74" height="74" viewBox="0 0 74 74" fill="none" xmlns="http://www.w3.org/2000/svg">
<mask id="mask0_1_360" style="mask-type:alpha" maskUnits="userSpaceOnUse" x="0" y="0" width="74" height="74">
<rect x="-6.10352e-05" width="73.9999" height="73.9999" fill="#0077CC"/>
</mask>
<g mask="url(#mask0_1_360)">
<path d="M27.7503 18.5H33.9169V12.3334H27.7503V18.5ZM40.0836 18.5V12.3334H46.2502V18.5H40.0836ZM27.7503 43.1667V37H33.9169V43.1667H27.7503ZM52.4169 30.8334V24.6667H58.5836V30.8334H52.4169ZM52.4169 43.1667V37H58.5836V43.1667H52.4169ZM40.0836 43.1667V37H46.2502V43.1667H40.0836ZM52.4169 18.5V12.3334H58.5836V18.5H52.4169ZM33.9169 24.6667V18.5H40.0836V24.6667H33.9169ZM15.4169 61.6667V12.3334H21.5836V18.5H27.7503V24.6667H21.5836V30.8334H27.7503V37H21.5836V61.6667H15.4169ZM46.2502 37V30.8334H52.4169V37H46.2502ZM33.9169 37V30.8334H40.0836V37H33.9169ZM27.7503 30.8334V24.6667H33.9169V30.8334H27.7503ZM40.0836 30.8334V24.6667H46.2502V30.8334H40.0836ZM46.2502 24.6667V18.5H52.4169V24.6667H46.2502Z" fill="#FF416F"/>
</g>
</svg>
