<svg width="44" height="50" viewBox="0 0 44 50" fill="none" xmlns="http://www.w3.org/2000/svg">
<path d="M12.7503 6.50004H18.9169V0.333374H12.7503V6.50004ZM25.0836 6.50004V0.333374H31.2502V6.50004H25.0836ZM12.7503 31.1667V25H18.9169V31.1667H12.7503ZM37.4169 18.8334V12.6667H43.5836V18.8334H37.4169ZM37.4169 31.1667V25H43.5836V31.1667H37.4169ZM25.0836 31.1667V25H31.2502V31.1667H25.0836ZM37.4169 6.50004V0.333374H43.5836V6.50004H37.4169ZM18.9169 12.6667V6.50004H25.0836V12.6667H18.9169ZM0.416931 49.6667V0.333374H6.58359V6.50004H12.7503V12.6667H6.58359V18.8334H12.7503V25H6.58359V49.6667H0.416931ZM31.2502 25V18.8334H37.4169V25H31.2502ZM18.9169 25V18.8334H25.0836V25H18.9169ZM12.7503 18.8334V12.6667H18.9169V18.8334H12.7503ZM25.0836 18.8334V12.6667H31.2502V18.8334H25.0836ZM31.2502 12.6667V6.50004H37.4169V12.6667H31.2502Z" fill="#FF416F"/>
</svg>
