<svg width="208" height="233" viewBox="0 0 208 233" fill="none" xmlns="http://www.w3.org/2000/svg">
<path d="M128.506 24.4958C128.506 10.9723 117.545 0 104.018 0C90.4901 0 79.5298 10.9723 79.5298 24.4958C79.5298 38.0154 90.4901 48.9837 104.018 48.9837C117.545 48.9837 128.506 38.0154 128.506 24.4958Z" fill="#F58220"/>
<path d="M171.157 129.073H143.351V164.947C143.351 168.873 144.11 171.548 145.672 172.958C151.585 177.815 164.548 174.464 165.832 169.894C170.064 171.691 173.923 181.312 168.2 188.099C164.878 192.038 157.216 194.263 145.672 194.263C136.098 194.263 127.975 192.133 122.976 187.65C118.553 183.172 116.3 175.621 116.3 164.951V129.077H106.651H104.111H76.0786V164.951C76.0786 168.877 76.8376 171.551 78.3994 172.962C84.3127 177.819 97.276 174.468 98.5596 169.898C102.792 171.695 106.651 181.316 100.928 188.103C97.4906 192.181 89.2326 194.267 78.3994 194.267C68.826 194.267 60.7031 192.137 55.7038 187.654C51.2807 183.176 49.0274 175.625 49.0274 164.955V129.081H36.8431V109.803H49.0274V85.7763H76.0786V109.803H104.111H106.651H116.3V85.7763H143.351V109.803H171.157V129.073ZM208 202.72V54.2068C208 54.2068 208 24.4652 178.258 24.4652H143.673L143.681 24.5089C143.681 46.3978 125.929 64.1656 104.024 64.1656C82.1191 64.1656 64.3671 46.3978 64.3671 24.5089L64.3791 24.4652H29.7415C29.7415 24.4652 0 24.4652 0 54.2068V202.72C0 202.72 0 232.461 29.7415 232.461H178.258C178.258 232.461 208 232.461 208 202.72Z" fill="#0077C0"/>
</svg>
